<?xml version="1.0" encoding="iso-8859-1"?>
<!-- Uploaded to: SVG Repo, www.svgrepo.com, Generator: SVG Repo Mixer Tools -->
<svg height="800px" width="800px" version="1.1" id="Layer_1" xmlns="http://www.w3.org/2000/svg" xmlns:xlink="http://www.w3.org/1999/xlink" 
	 viewBox="0 0 480 480" xml:space="preserve">
<path style="fill:#F2F2F2;" d="M264,80H8v-8.952C8,53.896,21.896,40,39.048,40H264V80z"/>
<g>
	<path style="fill:#FFFFFF;" d="M264,336V24.336C264,15.312,271.312,8,280.336,8H416v328H264z"/>
	<path style="fill:#FFFFFF;" d="M264,456V336h152v136H280C271.16,472,264,464.84,264,456z"/>
</g>
<path style="fill:#3AADD9;" d="M416,472V8h40c8.84,0,16,7.16,16,16v432c0,8.84-7.16,16-16,16H416z"/>
<path d="M456,0h-40H280.336C266.92,0,256,10.92,256,24.336V336v120c0,13.232,10.768,24,24,24h136h40c13.232,0,24-10.768,24-24V24
	C480,10.768,469.232,0,456,0z M272,24.336c0-4.6,3.736-8.336,8.336-8.336H408v312H272V24.336z M272,456V344h136v120H280
	C275.592,464,272,460.408,272,456z M464,456c0,4.408-3.592,8-8,8h-32V336V16h32c4.408,0,8,3.592,8,8V456z"/>
<path d="M384,200c-4.416,0-8-3.584-8-8V40c0-4.416,3.584-8,8-8s8,3.584,8,8v152C392,196.416,388.416,200,384,200z"/>
<path d="M384,304c-4.416,0-8-3.584-8-8v-72c0-4.416,3.584-8,8-8s8,3.584,8,8v72C392,300.416,388.416,304,384,304z"/>
<path d="M344,48h-40c-4.416,0-8-3.584-8-8s3.584-8,8-8h40c4.416,0,8,3.584,8,8S348.416,48,344,48z"/>
<path d="M328,80h-24c-4.416,0-8-3.584-8-8s3.584-8,8-8h24c4.416,0,8,3.584,8,8S332.416,80,328,80z"/>
<path d="M344,112h-40c-4.416,0-8-3.584-8-8s3.584-8,8-8h40c4.416,0,8,3.584,8,8S348.416,112,344,112z"/>
<path d="M344,144h-40c-4.416,0-8-3.584-8-8s3.584-8,8-8h40c4.416,0,8,3.584,8,8S348.416,144,344,144z"/>
<path d="M328,176h-24c-4.416,0-8-3.584-8-8s3.584-8,8-8h24c4.416,0,8,3.584,8,8S332.416,176,328,176z"/>
<path d="M344,208h-40c-4.416,0-8-3.584-8-8s3.584-8,8-8h40c4.416,0,8,3.584,8,8S348.416,208,344,208z"/>
<path d="M344,240h-40c-4.416,0-8-3.584-8-8s3.584-8,8-8h40c4.416,0,8,3.584,8,8S348.416,240,344,240z"/>
<path d="M328,272h-24c-4.416,0-8-3.584-8-8s3.584-8,8-8h24c4.416,0,8,3.584,8,8S332.416,272,328,272z"/>
<path d="M344,304h-40c-4.416,0-8-3.584-8-8s3.584-8,8-8h40c4.416,0,8,3.584,8,8S348.416,304,344,304z"/>
<circle style="fill:#3AADD9;" cx="339.28" cy="406.248" r="35.248"/>
<path d="M339.248,449.504c-23.848,0-43.248-19.4-43.248-43.248s19.4-43.248,43.248-43.248s43.248,19.4,43.248,43.248
	S363.096,449.504,339.248,449.504z M339.248,379C324.224,379,312,391.224,312,406.248s12.224,27.248,27.248,27.248
	s27.248-12.224,27.248-27.248S354.28,379,339.248,379z"/>
<path style="fill:#FFFFFF;" d="M248,472H40c-17.672,0-32-14.328-32-32V80h240c17.672,0,32,14.328,32,32v328
	C280,457.672,265.672,472,248,472z"/>
<path d="M271.968,80.176c0-0.064,0.032-0.112,0.032-0.176V40c0-4.416-3.584-8-8-8H39.04C17.512,32,0,49.512,0,71.04V80v360
	c0,22.056,17.944,40,40,40h208c22.056,0,40-17.944,40-40V112C288,98.968,281.64,87.48,271.968,80.176z M16,71.04
	C16,58.336,26.336,48,39.04,48H256v24h-8H16V71.04z M272,440c0,13.232-10.768,24-24,24H40c-13.232,0-24-10.768-24-24V88h232
	c13.232,0,24,10.768,24,24V440z"/>
<g>
	<circle style="fill:#F5B945;" cx="145.04" cy="217.04" r="79.792"/>
	<ellipse style="fill:#F5B945;" cx="145.84" cy="217.04" rx="34.464" ry="79.792"/>
</g>
<path d="M232.8,217.016c0-47.832-38.464-86.776-86.072-87.704c-0.296-0.008-0.584-0.088-0.888-0.088
	c-0.096,0-0.184,0.024-0.28,0.024c-0.184,0-0.36-0.024-0.544-0.024c-48.408,0-87.792,39.384-87.792,87.792
	s39.384,87.792,87.792,87.792c0.184,0,0.36-0.024,0.544-0.024c0.096,0,0.184,0.024,0.28,0.024c0.304,0,0.592-0.072,0.888-0.088
	C194.336,303.792,232.8,264.84,232.8,217.016z M146.256,288.744c-0.208,0-0.416,0.032-0.632,0.032
	c-8.144-0.248-18.56-15.176-23.456-40.776h47.344C164.656,273.376,154.376,288.248,146.256,288.744z M120,232
	c-0.4-4.752-0.624-9.736-0.624-14.984c0-6,0.304-11.664,0.816-17.016h51.296c0.512,5.352,0.816,11.016,0.816,17.016
	c0,5.248-0.232,10.232-0.624,14.984H120z M73.224,217.016c0-5.872,0.784-11.552,2.12-17.016h28.784
	c-0.48,5.48-0.752,11.152-0.752,17.016c0,5.144,0.24,10.128,0.608,14.984H74.816C73.792,227.16,73.224,222.16,73.224,217.016z
	 M145.624,145.256c0.208,0,0.416,0.024,0.632,0.032c7.896,0.48,17.824,14.584,22.832,38.712h-46.496
	C127.64,159.664,137.696,145.496,145.624,145.256z M187.544,200h27.128c1.336,5.464,2.12,11.144,2.12,17.016
	c0,5.144-0.568,10.144-1.6,14.984H187.68c0.376-4.856,0.608-9.84,0.608-14.984C188.304,211.152,188.032,205.48,187.544,200z
	 M208.688,184h-23.312c-2.328-12.544-5.968-23.48-10.616-32.24C189.344,158.44,201.312,169.824,208.688,184z M117.456,150.744
	c-4.912,8.92-8.744,20.224-11.16,33.256h-24.96C89.088,169.112,101.872,157.248,117.456,150.744z M80.352,248h25.6
	c2.384,13.88,6.344,25.904,11.504,35.288C101.176,276.488,87.976,263.84,80.352,248z M174.76,282.272
	c4.896-9.232,8.664-20.888,10.968-34.272h23.944C202.4,263.112,190.032,275.28,174.76,282.272z"/>
<path d="M224,360H64c-4.416,0-8-3.584-8-8s3.584-8,8-8h160c4.416,0,8,3.584,8,8S228.416,360,224,360z"/>
<path d="M96,392H64c-4.416,0-8-3.584-8-8s3.584-8,8-8h32c4.416,0,8,3.584,8,8S100.416,392,96,392z"/>
<path d="M224,392h-96c-4.416,0-8-3.584-8-8s3.584-8,8-8h96c4.416,0,8,3.584,8,8S228.416,392,224,392z"/>
<path d="M224,424h-32c-4.416,0-8-3.584-8-8s3.584-8,8-8h32c4.416,0,8,3.584,8,8S228.416,424,224,424z"/>
<path d="M160,424H64c-4.416,0-8-3.584-8-8s3.584-8,8-8h96c4.416,0,8,3.584,8,8S164.416,424,160,424z"/>
</svg>