<?xml version="1.0" encoding="iso-8859-1"?>
<!-- Uploaded to: SVG Repo, www.svgrepo.com, Generator: SVG Repo Mixer Tools -->
<svg height="800px" width="800px" version="1.1" id="Layer_1" xmlns="http://www.w3.org/2000/svg" xmlns:xlink="http://www.w3.org/1999/xlink" 
	 viewBox="0 0 360 360" xml:space="preserve">
<g id="XMLID_995_">
	<g id="XMLID_996_">
		<path id="XMLID_83_" style="fill:#1DD2A5;" d="M289.09,360H70.91c-16.039,0-29.041-13.002-29.041-29.041V29.041
			C41.869,13.002,54.871,0,70.91,0h218.18c16.039,0,29.041,13.002,29.041,29.041v301.918C318.132,346.998,305.129,360,289.09,360z"
			/>
		<path id="XMLID_999_" style="fill:#2CB79A;" d="M289.09,0H180v360h109.09c16.039,0,29.041-13.002,29.041-29.041V29.041
			C318.131,13.002,305.129,0,289.09,0z"/>
	</g>
	<g id="XMLID_1000_">
		<g id="XMLID_1001_">
			<path id="XMLID_1002_" style="fill:#C1E8E6;" d="M68.905,284v-31.95h13.636c1.529,0,2.932,0.315,4.207,0.945
				s2.37,1.455,3.285,2.475c0.915,1.021,1.635,2.176,2.16,3.465c0.524,1.291,0.787,2.596,0.787,3.915
				c0,1.411-0.247,2.761-0.742,4.051s-1.186,2.445-2.07,3.465s-1.957,1.83-3.217,2.43c-1.261,0.601-2.655,0.9-4.186,0.9h-6.479V284
				H68.905z M76.286,267.26h6.029c0.87,0,1.62-0.375,2.25-1.125c0.63-0.749,0.945-1.845,0.945-3.285
				c0-0.749-0.098-1.395-0.293-1.935s-0.457-0.99-0.787-1.35c-0.33-0.36-0.705-0.623-1.125-0.788
				c-0.421-0.164-0.84-0.247-1.26-0.247h-5.76v8.73H76.286z"/>
			<path id="XMLID_1005_" style="fill:#C1E8E6;" d="M103.601,252.05h6.66L121.915,284h-7.56l-2.475-7.155h-9.945L99.506,284h-7.561
				L103.601,252.05z M110.665,271.76l-3.734-11.295l-3.825,11.295H110.665z"/>
			<path id="XMLID_1008_" style="fill:#C1E8E6;" d="M143.741,261.41c-0.091-0.12-0.405-0.345-0.945-0.675s-1.215-0.676-2.025-1.035
				c-0.81-0.36-1.695-0.675-2.654-0.945c-0.961-0.27-1.921-0.405-2.881-0.405c-2.64,0-3.96,0.886-3.96,2.655
				c0,0.54,0.143,0.99,0.428,1.351c0.285,0.359,0.705,0.683,1.26,0.967c0.555,0.286,1.253,0.548,2.093,0.788s1.814,0.51,2.925,0.81
				c1.53,0.421,2.91,0.878,4.141,1.373c1.229,0.494,2.272,1.109,3.127,1.845c0.855,0.735,1.515,1.628,1.98,2.678
				c0.465,1.05,0.697,2.31,0.697,3.779c0,1.8-0.338,3.323-1.013,4.567c-0.675,1.246-1.567,2.25-2.678,3.016
				c-1.109,0.765-2.385,1.32-3.824,1.665c-1.44,0.345-2.926,0.518-4.455,0.518c-1.17,0-2.37-0.091-3.601-0.271
				s-2.43-0.442-3.6-0.787c-1.17-0.345-2.303-0.758-3.397-1.237c-1.096-0.479-2.108-1.035-3.038-1.665l3.24-6.436
				c0.12,0.15,0.51,0.436,1.17,0.855s1.478,0.84,2.453,1.26s2.062,0.795,3.262,1.125s2.415,0.495,3.646,0.495
				c2.61,0,3.915-0.795,3.915-2.385c0-0.601-0.195-1.095-0.585-1.485c-0.391-0.39-0.931-0.742-1.62-1.058
				c-0.69-0.315-1.508-0.607-2.452-0.878c-0.945-0.27-1.974-0.569-3.083-0.899c-1.47-0.45-2.745-0.938-3.825-1.463
				c-1.08-0.524-1.973-1.132-2.677-1.822c-0.706-0.689-1.23-1.485-1.575-2.385c-0.346-0.9-0.518-1.95-0.518-3.15
				c0-1.68,0.314-3.165,0.945-4.455c0.63-1.289,1.484-2.377,2.564-3.263c1.08-0.884,2.332-1.552,3.758-2.002
				c1.424-0.45,2.932-0.675,4.522-0.675c1.109,0,2.205,0.105,3.285,0.314c1.08,0.211,2.114,0.48,3.104,0.811
				s1.913,0.705,2.768,1.125c0.855,0.42,1.643,0.84,2.362,1.26L143.741,261.41z"/>
			<path id="XMLID_1010_" style="fill:#C1E8E6;" d="M171.416,261.41c-0.091-0.12-0.405-0.345-0.945-0.675s-1.215-0.676-2.025-1.035
				c-0.81-0.36-1.695-0.675-2.654-0.945c-0.961-0.27-1.921-0.405-2.881-0.405c-2.64,0-3.96,0.886-3.96,2.655
				c0,0.54,0.143,0.99,0.428,1.351c0.285,0.359,0.705,0.683,1.26,0.967c0.555,0.286,1.253,0.548,2.093,0.788s1.814,0.51,2.925,0.81
				c1.53,0.421,2.91,0.878,4.141,1.373c1.229,0.494,2.272,1.109,3.127,1.845c0.855,0.735,1.515,1.628,1.98,2.678
				c0.465,1.05,0.697,2.31,0.697,3.779c0,1.8-0.338,3.323-1.013,4.567c-0.675,1.246-1.567,2.25-2.678,3.016
				c-1.109,0.765-2.385,1.32-3.824,1.665c-1.44,0.345-2.926,0.518-4.455,0.518c-1.17,0-2.37-0.091-3.601-0.271
				s-2.43-0.442-3.6-0.787s-2.303-0.758-3.397-1.237c-1.096-0.479-2.108-1.035-3.038-1.665l3.24-6.436
				c0.12,0.15,0.51,0.436,1.17,0.855s1.478,0.84,2.453,1.26s2.062,0.795,3.262,1.125s2.415,0.495,3.646,0.495
				c2.61,0,3.915-0.795,3.915-2.385c0-0.601-0.195-1.095-0.585-1.485c-0.391-0.39-0.931-0.742-1.62-1.058
				c-0.69-0.315-1.508-0.607-2.452-0.878c-0.945-0.27-1.974-0.569-3.083-0.899c-1.47-0.45-2.745-0.938-3.825-1.463
				c-1.08-0.524-1.973-1.132-2.677-1.822c-0.706-0.689-1.23-1.485-1.575-2.385c-0.346-0.9-0.518-1.95-0.518-3.15
				c0-1.68,0.314-3.165,0.945-4.455c0.63-1.289,1.484-2.377,2.564-3.263c1.08-0.884,2.332-1.552,3.758-2.002
				c1.424-0.45,2.932-0.675,4.522-0.675c1.109,0,2.205,0.105,3.285,0.314c1.08,0.211,2.114,0.48,3.104,0.811
				s1.913,0.705,2.768,1.125c0.855,0.42,1.643,0.84,2.362,1.26L171.416,261.41z"/>
		</g>
		<g id="XMLID_1012_">
			<path id="XMLID_1013_" style="fill:#A0CFF1;" d="M179.919,284v-31.95h13.636c1.529,0,2.932,0.315,4.207,0.945
				s2.37,1.455,3.285,2.475c0.915,1.021,1.635,2.176,2.16,3.465c0.524,1.291,0.787,2.596,0.787,3.915
				c0,1.411-0.247,2.761-0.742,4.051s-1.186,2.445-2.07,3.465s-1.957,1.83-3.217,2.43c-1.261,0.601-2.655,0.9-4.186,0.9H187.3V284
				H179.919z M187.3,267.26h6.029c0.87,0,1.62-0.375,2.25-1.125c0.63-0.749,0.945-1.845,0.945-3.285
				c0-0.749-0.098-1.395-0.293-1.935s-0.457-0.99-0.787-1.35c-0.33-0.36-0.705-0.623-1.125-0.788
				c-0.421-0.164-0.84-0.247-1.26-0.247h-5.76L187.3,267.26L187.3,267.26z"/>
			<path id="XMLID_1016_" style="fill:#A0CFF1;" d="M221.949,284.27c-2.37,0-4.53-0.464-6.479-1.395
				c-1.95-0.93-3.615-2.152-4.995-3.668c-1.38-1.514-2.452-3.246-3.218-5.197c-0.765-1.949-1.147-3.96-1.147-6.029
				c0-2.1,0.397-4.125,1.192-6.075s1.905-3.668,3.33-5.152c1.425-1.485,3.112-2.67,5.063-3.556c1.95-0.885,4.08-1.327,6.391-1.327
				c2.369,0,4.529,0.466,6.479,1.395c1.95,0.931,3.615,2.16,4.995,3.69c1.38,1.53,2.444,3.271,3.195,5.22
				c0.749,1.95,1.125,3.931,1.125,5.94c0,2.1-0.398,4.125-1.192,6.075c-0.796,1.95-1.898,3.667-3.308,5.152
				c-1.411,1.484-3.091,2.677-5.04,3.577C226.389,283.82,224.26,284.27,221.949,284.27z M213.625,268.07
				c0,1.23,0.18,2.423,0.539,3.577c0.36,1.155,0.893,2.183,1.598,3.083c0.705,0.899,1.582,1.619,2.633,2.159
				c1.05,0.54,2.25,0.811,3.6,0.811c1.41,0,2.64-0.285,3.69-0.855c1.05-0.569,1.92-1.312,2.61-2.228
				c0.689-0.914,1.207-1.949,1.552-3.104c0.345-1.154,0.518-2.332,0.518-3.532c0-1.23-0.18-2.423-0.54-3.578
				c-0.359-1.154-0.899-2.175-1.62-3.06c-0.72-0.885-1.597-1.59-2.632-2.115c-1.035-0.524-2.228-0.787-3.578-0.787
				c-1.41,0-2.632,0.277-3.667,0.832c-1.035,0.556-1.905,1.282-2.61,2.183s-1.23,1.928-1.575,3.082
				C213.797,265.692,213.625,266.87,213.625,268.07z"/>
			<path id="XMLID_1019_" style="fill:#A0CFF1;" d="M242.153,284v-31.95h14.4c1.5,0,2.887,0.315,4.162,0.945
				s2.378,1.455,3.308,2.475c0.93,1.021,1.657,2.176,2.183,3.465c0.524,1.291,0.788,2.596,0.788,3.915
				c0,0.99-0.121,1.943-0.36,2.857c-0.24,0.916-0.585,1.778-1.035,2.588c-0.45,0.811-0.998,1.538-1.643,2.183
				c-0.646,0.646-1.372,1.192-2.183,1.643l7.021,11.88h-8.325l-6.12-10.305h-4.814V284H242.153z M249.534,267.26h6.75
				c0.869,0,1.619-0.412,2.25-1.237c0.63-0.825,0.944-1.882,0.944-3.173c0-1.319-0.359-2.369-1.08-3.149
				c-0.72-0.78-1.5-1.17-2.34-1.17h-6.524L249.534,267.26L249.534,267.26z"/>
			<path id="XMLID_1022_" style="fill:#A0CFF1;" d="M296.154,258.53h-9.721V284h-7.38v-25.47h-9.765v-6.48h26.865v6.48H296.154z"/>
		</g>
	</g>
	<g id="XMLID_1024_">
		<path id="XMLID_1025_" style="fill:#FCE98E;" d="M107.651,150.418c8.281,19.337,22.482,33.46,41.774,41.754
			c9.618,4.138,19.63,6.233,30.157,6.284c0.105,0,0.207,0.005,0.317,0.005c10.645,0.008,20.75-2.103,30.479-6.241
			c19.466-8.286,33.545-22.396,41.839-41.689c4.173-9.713,6.28-19.909,6.289-30.554c0.008-10.643-2.083-20.758-6.241-30.479
			C244,70.192,229.943,56.145,210.49,47.828c-9.722-4.158-19.824-6.28-30.469-6.288c-0.11,0-0.212,0.005-0.317,0.005
			c-10.528,0.034-20.543,2.115-30.167,6.236c-19.305,8.259-33.527,22.279-41.838,41.604c-4.163,9.678-6.195,19.826-6.203,30.469
			C101.487,130.499,103.503,140.731,107.651,150.418z M184.87,98.289l28.327,0.022c1.281,7.208,1.876,14.422,1.87,21.632
			c-0.005,6.694-0.61,13.818-1.734,21.456l-28.497-0.022L184.87,98.289z M200.262,175.731c-4.693,6.746-9.794,10.898-15.463,12.435
			l0.029-37.343l26.351,0.02C208.6,160.716,204.941,169.003,200.262,175.731z M206.091,183.89
			c6.786-8.494,11.778-19.567,14.964-33.038l20.518,0.016C234.262,165.714,221.546,177.459,206.091,183.89z M245.473,98.336
			c2.316,6.951,3.51,14.164,3.504,21.633c-0.006,7.294-1.126,14.507-3.363,21.455l-22.665-0.018
			c1.123-7.293,1.643-14.417,1.649-21.456c0.005-7.124-0.504-14.339-1.615-21.632L245.473,98.336z M241.622,88.887l-20.519-0.016
			c-3.166-13.224-8.14-24.131-14.913-32.717C221.384,62.431,234.079,74.202,241.622,88.887z M200.264,64.216
			c4.695,6.631,8.31,14.86,10.963,24.647l-26.351-0.02l0.029-36.999C190.482,53.396,195.524,57.528,200.264,64.216z
			 M118.386,150.771l20.513,0.016c3.17,13.476,8.137,24.558,14.91,33.062C138.364,177.395,125.669,165.63,118.386,150.771z
			 M144.933,119.888c0.006-7.209,0.611-14.423,1.906-21.629l28.33,0.022l-0.033,43.088l-28.5-0.022
			C145.522,133.707,144.928,126.582,144.933,119.888z M159.568,175.699c-4.712-6.703-8.309-15.028-10.793-24.905l26.354,0.02
			l-0.029,37.343C169.52,186.522,164.286,182.398,159.568,175.699z M159.83,64.184c4.743-6.681,9.794-10.805,15.376-12.348
			l-0.029,36.998l-26.354-0.021C151.492,79.031,155.122,70.808,159.83,64.184z M153.909,56.113
			c-6.786,8.576-11.77,19.475-14.961,32.694l-20.513-0.016C125.997,74.118,138.713,62.366,153.909,56.113z M114.561,98.234
			l22.492,0.018c-1.12,7.291-1.645,14.505-1.651,21.629c-0.005,7.039,0.508,14.164,1.617,21.459l-22.667-0.018
			c-2.226-6.951-3.332-14.166-3.327-21.46C111.032,112.392,112.234,105.181,114.561,98.234z"/>
		<path id="XMLID_1039_" style="fill:#FAE16E;" d="M252.264,89.498C244,70.192,229.943,56.145,210.49,47.828
			c-9.722-4.158-19.823-6.28-30.469-6.288c-0.007,0-0.014,0-0.021,0v156.917c10.608-0.005,20.679-2.114,30.377-6.239
			c19.466-8.286,33.545-22.396,41.839-41.689c4.173-9.713,6.28-19.909,6.289-30.554C258.513,109.333,256.422,99.219,252.264,89.498z
			 M241.622,88.887l-20.519-0.016c-3.166-13.224-8.14-24.131-14.913-32.717C221.384,62.431,234.079,74.202,241.622,88.887z
			 M184.906,51.844c5.576,1.552,10.618,5.684,15.358,12.372c4.695,6.631,8.31,14.86,10.963,24.647l-26.351-0.021L184.906,51.844z
			 M184.87,98.289l28.327,0.022c1.281,7.208,1.875,14.423,1.87,21.632c-0.005,6.695-0.61,13.818-1.733,21.457l-28.497-0.022
			L184.87,98.289z M184.8,188.166l0.029-37.343l26.351,0.02c-2.579,9.873-6.239,18.159-10.917,24.888
			C195.569,182.477,190.468,186.629,184.8,188.166z M206.091,183.89c6.786-8.494,11.778-19.567,14.964-33.039l20.518,0.016
			C234.262,165.714,221.546,177.459,206.091,183.89z M245.614,141.424l-22.665-0.018c1.123-7.293,1.643-14.417,1.649-21.456
			c0.005-7.124-0.504-14.339-1.615-21.632l22.49,0.017c2.316,6.951,3.51,14.164,3.504,21.633
			C248.971,127.263,247.851,134.476,245.614,141.424z"/>
	</g>
</g>
</svg>